<svg xmlns="http://www.w3.org/2000/svg" viewBox="0 0 600 240" width="600" height="240">
<title>Sangemini · Alimento per lo sport — taxi illustrato</title>
<defs><linearGradient id="paint" x2=".15" y2="1"><stop stop-color="#fffdf6"/><stop offset=".55" stop-color="#f3efdf"/><stop offset="1" stop-color="#ddd9c9"/></linearGradient><linearGradient id="glass" x2=".3" y2="1"><stop stop-color="#668098"/><stop offset=".52" stop-color="#273e57"/><stop offset="1" stop-color="#162a40"/></linearGradient><linearGradient id="metal" x2="1" y2="1"><stop stop-color="#fff"/><stop offset=".48" stop-color="#a9b9cb"/><stop offset="1" stop-color="#63778e"/></linearGradient><clipPath id="body"><path d="M30 169 32 144Q37 126 57 119L174 104 225 69Q240 57 267 55L365 55Q391 55 409 65L469 102 545 115Q560 118 566 136L573 161 570 182H526Q524 140 482 140 440 140 438 184H151Q149 140 108 140 66 140 64 184H32Q24 182 30 169Z"/></clipPath><clipPath id="panel"><path d="M216 113H431L450 121 445 141Q426 154 425 179H208Q203 161 206 143Z"/></clipPath></defs>
<style>.rim{animation:roll 2.4s linear infinite;transform-box:fill-box;transform-origin:center}@keyframes roll{to{transform:rotate(-360deg)}}@media(prefers-reduced-motion:reduce){.rim{animation:none}}</style>
<ellipse cx="300" cy="218" rx="262" ry="7" fill="#142d55" opacity=".06"/><ellipse cx="300" cy="216" rx="222" ry="3" fill="#142d55" opacity=".06"/>
<path d="M63 178H539v15H63Z" fill="#1f2e43"/>
<path d="M30 169 32 144Q37 126 57 119L174 104 225 69Q240 57 267 55L365 55Q391 55 409 65L469 102 545 115Q560 118 566 136L573 161 570 182H526Q524 140 482 140 440 140 438 184H151Q149 140 108 140 66 140 64 184H32Q24 182 30 169Z" fill="url(#paint)" stroke="#aab4c0" stroke-width="1.5"/>
<g clip-path="url(#panel)"><rect x="200" y="110" width="254" height="80" fill="#fff5e2"/><path d="M208 114h231v14H208Z" fill="#efb5ab"/><path d="M229 133q28-19 62 0" stroke="#238267" stroke-width="4" fill="none"/><path d="M228 137q27 14 65 0" stroke="#b83340" stroke-width="3" fill="none"/><text x="220" y="157" font-family="Arial,Helvetica,sans-serif" font-size="22" font-weight="800" fill="#c33b42" text-anchor="start">SANGEMINI</text><text x="230" y="170" font-family="Arial,Helvetica,sans-serif" font-size="8" font-weight="700" fill="#ba3942" text-anchor="start">alimento per lo sport</text><g transform="translate(382 112) rotate(8)"><path d="M10 0h14v12l7 10v47H3V22l7-10Z" fill="#e6edef" stroke="#ffffff88"/><rect x="10" y="-3" width="14" height="7" rx="2" fill="#e2eaf0"/><path d="M8 21v40" stroke="#ffffff80" stroke-width="3"/><rect x="3" y="30" width="28" height="20" fill="#fdf9ed"/><text x="17" y="43" font-family="Arial,Helvetica,sans-serif" font-size="7" font-weight="800" fill="#a42b2f" text-anchor="middle">SANGEMINI</text></g></g>
<path d="M203 108 235 77Q246 66 270 65H364Q384 65 397 75L437 106Z" fill="url(#glass)" stroke="#b7bdc1" stroke-width="2"/>
<path d="m214 102 32-25q10-6 24-6h82L316 105Z" fill="#c5dce7" opacity=".18"/><path d="m376 70 48 30h-48Z" fill="#d1e4e9" opacity=".12"/>
<path d="M310 65 306 110M368 66v42" stroke="#15283c" stroke-width="7"/><path d="M312 66 308 107M371 69v36" stroke="#bac6cf" stroke-width="1"/>
<path d="m206 112-5 27 4 42m104-72-5 72m137-71 4 22" fill="none" stroke="#1c3045" stroke-opacity=".34" stroke-width="1.5"/>
<path d="M151 183H437" stroke="#fffcf2" stroke-width="6"/><path d="M153 188H436" stroke="#b4b8b3" stroke-width="2"/>
<path d="m41 131 129-19m287-5 86 14" stroke="#fffef7" stroke-width="2.5" fill="none"/>
<path d="m38 139 15-12 29-2-14 15-29 5Z" fill="#dae9ee" stroke="#8f9fa9"/><path d="m43 136 21-6-9 9-13 2" fill="#fffef2"/><path d="m542 129 21 6 5 16-22-3-9-12Z" fill="#b92f42"/><path d="m543 132 18 4 2 5-17-2Z" fill="#f7969b"/>
<path d="M34 165h14l-4 13H31m523-11h15" fill="#304053" stroke="#c2c8ce"/><path d="M39 154h22m472 7h34" stroke="#a1acb7" stroke-width="2"/>
<g fill="url(#metal)" stroke="#9aabba" stroke-width=".7"><rect x="270" y="120" width="22" height="5" rx="2.5"/><rect x="392" y="119" width="22" height="5" rx="2.5"/><path d="M209 103q-18-9-21 4v10q9 7 21 1Z"/></g>
<path d="M320 54v-6h38v7" fill="#304159"/><path d="m316 47 5-17q2-5 7-5h24q6 0 8 5l5 17Z" fill="#f7d451" stroke="#c8aa38"/><text x="340" y="40" font-family="Arial,Helvetica,sans-serif" font-size="10" font-weight="800" fill="#273550" text-anchor="middle">TAXI</text>
<g transform="translate(108 182)"><circle r="36" fill="#172237"/><circle r="31" fill="#26364a" stroke="#425064" stroke-width="1.5"/><circle r="27" fill="#132238"/><g class="rim"><path d="M0-5-5-25 2-26 7-7Z" transform="rotate(0)" fill="url(#metal)" stroke="#6f8093" stroke-width=".6"/><path d="M0-5-5-25 2-26 7-7Z" transform="rotate(72)" fill="url(#metal)" stroke="#6f8093" stroke-width=".6"/><path d="M0-5-5-25 2-26 7-7Z" transform="rotate(144)" fill="url(#metal)" stroke="#6f8093" stroke-width=".6"/><path d="M0-5-5-25 2-26 7-7Z" transform="rotate(216)" fill="url(#metal)" stroke="#6f8093" stroke-width=".6"/><path d="M0-5-5-25 2-26 7-7Z" transform="rotate(288)" fill="url(#metal)" stroke="#6f8093" stroke-width=".6"/><circle r="7" fill="#a8b7c8" stroke="#667891"/><circle r="3" fill="#455b77"/></g></g><g transform="translate(482 182)"><circle r="36" fill="#172237"/><circle r="31" fill="#26364a" stroke="#425064" stroke-width="1.5"/><circle r="27" fill="#132238"/><g class="rim"><path d="M0-5-5-25 2-26 7-7Z" transform="rotate(0)" fill="url(#metal)" stroke="#6f8093" stroke-width=".6"/><path d="M0-5-5-25 2-26 7-7Z" transform="rotate(72)" fill="url(#metal)" stroke="#6f8093" stroke-width=".6"/><path d="M0-5-5-25 2-26 7-7Z" transform="rotate(144)" fill="url(#metal)" stroke="#6f8093" stroke-width=".6"/><path d="M0-5-5-25 2-26 7-7Z" transform="rotate(216)" fill="url(#metal)" stroke="#6f8093" stroke-width=".6"/><path d="M0-5-5-25 2-26 7-7Z" transform="rotate(288)" fill="url(#metal)" stroke="#6f8093" stroke-width=".6"/><circle r="7" fill="#a8b7c8" stroke="#667891"/><circle r="3" fill="#455b77"/></g></g>
</svg>